<svg xmlns="http://www.w3.org/2000/svg" width="240" height="117" fill="none" viewBox="0 0 240 117">
  <path fill="url(#a)" d="M19.103 75.04h23.645V86H3.915V75.822L27.402 42H3.915V31.039h38.833v10.178L19.103 75.039Zm73.572-11.588c0 1.252-.078 2.557-.235 3.914H62.141c.209 2.715 1.07 4.802 2.584 6.264 1.566 1.41 3.47 2.114 5.715 2.114 3.34 0 5.663-1.41 6.968-4.228h14.25a19.3 19.3 0 0 1-3.994 7.75c-1.879 2.297-4.254 4.098-7.124 5.403-2.871 1.305-6.081 1.957-9.63 1.957-4.28 0-8.09-.913-11.431-2.74-3.34-1.827-5.95-4.436-7.83-7.83-1.878-3.392-2.818-7.359-2.818-11.9 0-4.54.914-8.507 2.74-11.9 1.88-3.393 4.49-6.002 7.83-7.83 3.34-1.826 7.177-2.74 11.509-2.74 4.228 0 7.986.888 11.274 2.662 3.288 1.775 5.846 4.306 7.672 7.595 1.88 3.288 2.82 7.124 2.82 11.509Zm-13.701-3.523c0-2.297-.783-4.124-2.349-5.48-1.566-1.358-3.523-2.036-5.872-2.036-2.244 0-4.15.652-5.715 1.957-1.514 1.305-2.453 3.158-2.819 5.559h16.755Zm34.152-31.865V86H99.738V28.064h13.388Zm7.04 36.014c0-4.489.835-8.43 2.505-11.822 1.723-3.393 4.046-6.002 6.969-7.83 2.922-1.826 6.185-2.74 9.786-2.74 2.871 0 5.481.6 7.829 1.801 2.401 1.2 4.28 2.819 5.637 4.854V28.064h13.388V86h-13.388v-6.263c-1.252 2.087-3.053 3.758-5.402 5.01-2.296 1.253-4.984 1.88-8.064 1.88-3.601 0-6.864-.914-9.786-2.74-2.923-1.88-5.246-4.516-6.969-7.908-1.67-3.445-2.505-7.412-2.505-11.9Zm32.726.078c0-3.34-.939-5.976-2.818-7.907-1.827-1.931-4.071-2.897-6.733-2.897s-4.933.966-6.812 2.897c-1.827 1.879-2.74 4.489-2.74 7.83 0 3.34.913 6.002 2.74 7.985 1.879 1.931 4.15 2.897 6.812 2.897s4.906-.966 6.733-2.897c1.879-1.931 2.818-4.567 2.818-7.908Zm20.412-.078c0-4.489.835-8.43 2.505-11.822 1.723-3.393 4.046-6.002 6.968-7.83 2.923-1.826 6.186-2.74 9.787-2.74 3.08 0 5.768.627 8.064 1.88 2.349 1.252 4.15 2.896 5.402 4.932v-6.185h13.388V86H206.03v-6.185c-1.305 2.035-3.131 3.68-5.48 4.932-2.297 1.253-4.985 1.88-8.064 1.88-3.55 0-6.786-.914-9.709-2.74-2.922-1.88-5.245-4.516-6.968-7.908-1.67-3.445-2.505-7.412-2.505-11.9Zm32.726.078c0-3.34-.939-5.976-2.818-7.907-1.827-1.931-4.071-2.897-6.733-2.897s-4.933.966-6.812 2.897c-1.827 1.879-2.74 4.489-2.74 7.83 0 3.34.913 6.002 2.74 7.985 1.879 1.931 4.15 2.897 6.812 2.897s4.906-.966 6.733-2.897c1.879-1.931 2.818-4.567 2.818-7.908Z"/>
  <rect width="43" height="27" x="197" y="72" fill="#fff" rx="1.363"/>
  <path fill="#12131B" d="M209.768 90.324h-5.654L203.208 93h-3.863l5.481-15.148h4.273L214.58 93h-3.906l-.906-2.676Zm-.95-2.848-1.877-5.546-1.856 5.546h3.733Zm18.975-4.748c0 .878-.202 1.684-.605 2.417-.402.72-1.021 1.302-1.855 1.748-.835.446-1.87.67-3.108.67h-2.287V93h-3.69V77.852h5.977c1.209 0 2.23.208 3.065.626.834.417 1.46.992 1.877 1.726.417.734.626 1.575.626 2.525Zm-5.848 1.9c.705 0 1.23-.166 1.575-.497.345-.33.518-.798.518-1.403 0-.604-.173-1.071-.518-1.402-.345-.331-.87-.496-1.575-.496h-2.007v3.797h2.007Zm11.459-6.776V93h-3.69V77.852h3.69Z"/>
  <defs>
    <linearGradient id="a" x1="112.5" x2="112.5" y1="25.066" y2="117" gradientUnits="userSpaceOnUse">
      <stop stop-color="#24D23C"/>
      <stop offset="1" stop-color="#246238"/>
    </linearGradient>
  </defs>
</svg>
